<svg xmlns="http://www.w3.org/2000/svg" width="1280" height="750"><defs><clipPath id="a"><path data-name="Rectángulo 129" fill="#fff" stroke="#707070" d="M0 0h1280v750H0z"/></clipPath></defs><g data-name="Enmascarar grupo 4" clip-path="url(#a)"><path data-name="Trazado 149" d="M0 0h1280v810.535H0z" fill="#222465"/><path data-name="Trazado 147" d="M1046.593-123.268c205.891 126.04 438.345-127.097 433.64 27.652s-387.324 245.398-639.17 215.982-277.561-167.757-272.86-322.507 272.499-47.17 478.39 78.873z" fill="#4e51bf"/><path data-name="Trazado 148" d="M-12.004 485.369c749.8 391.366 789.526-63.914 1240.933-43.265s72.144 390.528 72.144 390.528H-144.913S-761.805 94.003-12.004 485.369z" fill="#4e51bf"/></g></svg>transform="translate(573.361 -288.843) rotate(5)" fill="#4e51bf"/>
    <path id="Trazado_148" data-name="Trazado 148" d="M-244.049-73.163c749.8,391.366,789.526-63.914,1240.933-43.265S1069.028,274.1,1069.028,274.1H-376.958S-993.85-464.529-244.049-73.163Z" transform="translate(232.045 558.532)" fill="#4e51bf"/>
  </g>
</svg>
